<?xml version="1.0" encoding="utf-8"?>
<!-- Generator: Adobe Illustrator 26.1.0, SVG Export Plug-In . SVG Version: 6.00 Build 0)  -->
<svg version="1.1" id="Capa_1" xmlns="http://www.w3.org/2000/svg" xmlns:xlink="http://www.w3.org/1999/xlink" x="0px" y="0px"
	 viewBox="0 0 716 716" style="enable-background:new 0 0 716 716;" xml:space="preserve">
<style type="text/css">
	.st0{fill:#FF9861;}
	.st1{fill:#2A1816;}
</style>
<path class="st0" d="M358,713.3L358,713.3C162.3,713.3,3.7,554.6,3.7,358.9v0C3.7,163.3,162.3,4.6,358,4.6h0
	c195.7,0,354.3,158.6,354.3,354.3v0C712.3,554.6,553.7,713.3,358,713.3z"/>
<g>
	<g>
		<circle class="st1" cx="541.6" cy="509" r="71.1"/>
		<path class="st1" d="M426.6,352.1l53.2-11.5c10.9-2.4,19.9-10.1,23.8-20.6c3.9-10.5,2.1-22.2-4.7-31.1l-99.1-129.3
			c-11-14.3-31.4-17-45.7-6.1c-14.3,11-17,31.4-6,45.7l67.7,88.4l-54.5,11.7l-48-222.7c-3.8-17.6-21.2-28.8-38.8-25
			c-17.6,3.8-28.8,21.2-25,38.8l56.4,261.6c-5.4,10-7.7,21.7-4.9,34.5l36.1,161.6L185,581.4c-14.9,3.3-24.3,18-21.1,32.9
			c3.3,14.9,17.9,24.3,32.8,21.1c0,0,0.1,0,0.1,0L378,595.7c7,2.2,14.2,3.4,21.1,3.5c0,0,7.8,0.5,15.5-1.4
			c7.4-1.8,15.3-5.4,15.3-5.4l0.2-0.1c22.1-11,42.7-35.6,36.2-64.1L428.3,358C427.8,355.9,427.2,354,426.6,352.1z"/>
	</g>
</g>
</svg>
